<?xml version="1.0" standalone="no"?>
<!DOCTYPE svg PUBLIC "-//W3C//DTD SVG 20010904//EN"
 "http://www.w3.org/TR/2001/REC-SVG-20010904/DTD/svg10.dtd">
<svg version="1.0" xmlns="http://www.w3.org/2000/svg"
 width="502.000000pt" height="497.000000pt" viewBox="0 0 502.000000 497.000000"
 preserveAspectRatio="xMidYMid meet">
<metadata>
Created by potrace 1.16, written by Peter Selinger 2001-2019
</metadata>
<g transform="translate(0.000000,497.000000) scale(0.100000,-0.100000)"
fill="#000000" stroke="none">
<path d="M2435 4850 c-89 -8 -220 -98 -286 -196 -20 -31 -59 -76 -86 -99 -31
-27 -62 -68 -84 -111 l-34 -68 0 -214 c0 -117 3 -216 7 -218 8 -5 10 2 33 119
28 140 71 204 165 246 57 26 93 26 128 2 33 -24 72 -28 182 -17 75 6 93 5 143
-14 130 -49 325 -221 343 -304 4 -17 18 -48 31 -70 14 -21 39 -69 57 -105 l31
-66 -1 -185 c0 -210 -12 -260 -84 -371 -60 -93 -173 -221 -200 -227 -8 -2 -18
-8 -21 -14 -3 -5 -9 -9 -13 -9 -21 3 -27 -1 -23 -13 4 -10 1 -13 -9 -9 -10 3
-14 -2 -14 -17 0 -26 -46 -70 -72 -70 -10 0 -18 -4 -18 -10 0 -18 -37 -10 -63
14 -39 36 -87 139 -87 186 0 50 -20 98 -51 126 -55 50 -272 164 -253 133 3 -5
0 -9 -5 -9 -6 0 -11 4 -11 10 0 6 -18 7 -45 3 -42 -5 -47 -3 -85 34 -45 45
-53 37 -15 -13 l25 -33 -27 -17 c-16 -10 -44 -28 -64 -41 -19 -12 -40 -23 -46
-23 -17 0 -6 -67 38 -230 21 -80 39 -155 39 -167 0 -12 3 -24 8 -26 16 -10 10
102 -10 185 -11 48 -18 94 -14 103 8 23 32 18 50 -10 9 -14 23 -25 31 -25 12
0 12 4 0 27 -20 38 -8 43 103 43 94 0 182 -15 182 -31 0 -5 -4 -9 -8 -9 -5 0
-17 -7 -28 -15 -16 -13 -12 -13 21 1 22 9 55 19 72 22 28 4 34 0 43 -23 14
-36 13 -92 -3 -102 -22 -15 -42 -65 -41 -107 1 -28 -1 -35 -6 -21 l-7 20 -5
-20 c-4 -14 -6 -15 -7 -4 -1 12 -10 16 -36 16 -19 -1 -35 -6 -35 -12 -1 -5 -7
1 -15 15 -8 14 -14 20 -15 13 0 -6 -9 -9 -21 -6 -15 4 -27 -1 -40 -18 -16 -20
-19 -21 -19 -6 0 10 -4 16 -9 12 -5 -3 -13 0 -17 7 -5 7 -10 3 -16 -13 -7 -17
-11 -20 -17 -10 -5 7 -11 12 -15 12 -24 -3 -27 1 -21 29 7 34 -7 40 -32 14
-13 -13 -14 -19 -2 -40 11 -21 11 -27 -1 -34 -11 -7 -11 -11 -1 -24 11 -13 17
-14 28 -5 11 10 12 9 7 -5 -3 -9 -12 -16 -19 -16 -7 0 -16 -6 -19 -12 -3 -9
-11 -6 -25 11 -36 40 -25 -2 14 -55 39 -55 60 -92 54 -97 -16 -13 -850 -286
-984 -322 -113 -31 -141 -43 -171 -77 -46 -50 -154 -219 -163 -255 -5 -21 -14
-112 -19 -203 -10 -162 -37 -299 -87 -440 -9 -24 -22 -83 -30 -130 -21 -119
-29 -135 -90 -169 -43 -25 -58 -40 -78 -83 -14 -29 -28 -80 -32 -113 -10 -89
-51 -217 -105 -330 -26 -55 -56 -125 -65 -155 -10 -30 -32 -71 -50 -90 -44
-47 -65 -91 -72 -151 l-6 -49 472 0 c453 0 471 1 471 19 0 10 10 31 22 46 13
17 28 62 40 119 l18 91 -5 -100 c-3 -55 -8 -117 -11 -137 l-7 -38 715 0 715 0
7 163 c21 563 28 849 24 1127 -4 286 -6 322 -26 393 -19 69 -20 82 -8 105 21
41 151 162 174 162 10 0 36 -11 57 -25 l37 -26 -21 28 c-12 15 -42 53 -67 83
-24 30 -63 79 -85 108 -42 53 -59 64 -59 37 0 -8 -9 -15 -20 -15 -28 0 -90 32
-90 46 0 7 -9 16 -21 19 -35 11 -130 -65 -232 -187 -74 -89 -77 -85 -77 96 0
84 -5 178 -10 207 -11 60 -17 205 -8 214 3 3 27 0 53 -7 41 -11 57 -24 126
-104 43 -51 110 -120 149 -154 81 -72 60 -73 239 17 154 78 322 193 368 250
46 58 78 126 70 147 -11 28 -23 17 -40 -38 -33 -102 -126 -184 -367 -319 -176
-99 -185 -101 -234 -47 -21 23 -50 62 -66 86 -15 24 -45 56 -66 70 -38 26 -54
42 -54 55 0 4 21 6 48 6 31 0 67 9 105 26 32 15 59 27 62 27 2 0 30 15 62 34
33 19 72 38 89 42 41 10 91 36 188 99 103 67 129 97 176 200 28 62 36 91 35
130 -1 28 2 64 8 80 5 17 13 50 17 75 4 25 13 72 19 105 6 33 11 80 11 105 0
56 18 84 73 112 23 11 61 38 84 58 24 21 57 40 74 44 31 6 91 -13 103 -33 10
-16 26 -13 26 5 0 8 14 47 31 87 85 195 101 256 104 402 l2 110 -34 51 c-19
29 -45 83 -59 120 -51 141 -114 213 -244 279 -96 48 -150 66 -265 91 -44 9
-125 29 -180 45 -179 50 -300 68 -400 59z m-218 -1675 c37 -14 82 -37 101 -51
36 -28 37 -43 2 -24 -15 8 -25 9 -29 2 -4 -6 -56 -7 -151 0 -102 6 -152 6
-169 -2 -13 -6 -26 -9 -28 -6 -11 10 33 81 57 93 43 22 142 16 217 -12z m87
-1190 c85 -111 86 -198 2 -364 -13 -25 -33 -78 -45 -116 -23 -77 -61 -328 -61
-403 0 -26 -7 -85 -16 -132 -12 -68 -15 -163 -15 -470 0 -212 -2 -380 -4 -375
-2 6 -6 31 -10 57 -4 31 -10 45 -18 42 -14 -5 -34 52 -82 231 -15 55 -33 118
-41 140 -9 23 -16 75 -17 118 -1 42 -3 72 -5 67 -8 -22 -19 -7 -32 43 -7 28
-15 58 -18 65 -3 8 1 10 14 5 14 -5 13 -2 -4 15 -12 12 -22 26 -22 31 0 5 -3
16 -6 24 -3 8 2 17 12 21 12 5 15 2 10 -9 -3 -10 4 -26 19 -41 14 -14 25 -33
25 -43 0 -10 6 -24 14 -30 7 -6 21 -35 30 -64 35 -110 48 -103 49 25 0 79 3
95 19 106 10 7 18 19 18 26 0 8 6 16 14 19 7 3 16 29 20 64 11 90 7 635 -5
757 -6 59 -8 118 -5 130 5 18 108 96 127 96 4 0 19 -16 33 -35z"/>
<path d="M1932 3874 c-6 -28 -8 -88 -5 -139 3 -49 6 -102 7 -117 1 -24 4 -26
31 -21 41 7 74 29 87 59 14 29 23 30 41 4 13 -19 13 -19 31 2 15 17 17 31 11
89 -4 39 -13 76 -21 83 -7 8 -46 27 -86 42 -40 16 -76 32 -79 37 -4 6 -12 -12
-17 -39z"/>
<path d="M2370 3850 c-79 -11 -92 -18 -88 -49 3 -30 -6 -29 193 -16 135 9 189
-1 297 -56 32 -16 58 -26 58 -21 0 19 -70 73 -140 108 -70 36 -82 38 -170 40
-52 1 -120 -1 -150 -6z"/>
<path d="M2378 3753 c-31 -5 -78 -55 -78 -84 0 -24 8 -24 45 1 72 47 79 51 65
39 -20 -18 -60 -70 -60 -78 0 -3 16 -6 35 -7 22 0 32 3 26 9 -11 11 -4 37 10
37 5 0 9 -13 9 -30 0 -26 4 -30 28 -30 30 0 57 22 63 51 4 15 10 14 54 -6 l50
-22 -65 -16 c-63 -16 -64 -17 -15 -12 87 9 154 21 162 29 22 22 -129 101 -218
116 -35 5 -68 9 -74 8 -5 0 -22 -3 -37 -5z"/>
<path d="M3213 2542 c-6 -4 -16 -27 -23 -52 -25 -96 -82 -248 -115 -308 -13
-24 -22 -49 -19 -56 3 -7 -6 -53 -20 -102 -13 -49 -39 -141 -56 -204 -41 -148
-70 -281 -60 -275 4 2 10 23 14 45 4 23 14 52 22 66 9 13 12 24 8 24 -5 0 -1
7 9 14 13 10 17 23 14 46 -6 34 24 136 36 124 4 -4 7 -1 7 7 0 9 11 39 25 67
14 29 25 56 25 62 0 5 4 10 9 10 10 0 125 226 126 247 0 6 8 19 16 30 22 25
53 92 46 100 -4 3 -2 14 3 23 8 14 16 16 43 10 55 -12 116 -43 122 -61 3 -9
29 -37 58 -62 100 -86 99 -86 124 -74 24 11 24 35 0 65 -8 10 -7 16 4 23 19
12 69 11 69 -1 0 -5 12 -10 28 -10 38 1 24 8 -166 84 -88 35 -191 82 -229 104
-99 57 -108 61 -120 54z"/>
<path d="M3760 2298 c32 -32 176 -87 222 -86 15 0 47 -9 72 -20 24 -12 56 -23
70 -26 14 -3 31 -8 38 -13 7 -4 16 -8 19 -8 7 0 135 -63 199 -97 19 -11 42
-22 52 -25 19 -6 31 -60 22 -100 -33 -145 -197 -583 -212 -568 -3 3 -12 -5
-19 -17 -7 -13 -12 -17 -13 -10 0 6 -4 12 -8 12 -5 0 -8 -21 -8 -46 1 -34 -4
-48 -16 -55 -10 -6 -18 -22 -18 -36 0 -23 -2 -25 -12 -11 -8 10 -37 18 -73 22
-36 4 -55 3 -47 -2 15 -10 1 -25 -35 -36 -13 -4 -23 -15 -24 -24 0 -10 -3 -12
-5 -5 -7 16 -34 5 -66 -29 -14 -15 -29 -28 -32 -28 -3 0 -16 -9 -28 -19 -13
-11 -33 -29 -46 -39 -12 -11 -21 -24 -20 -28 2 -5 -5 -20 -15 -34 l-18 -25 7
28 c5 22 3 27 -12 27 -16 0 -19 -8 -19 -51 0 -51 0 -52 34 -55 44 -5 53 -14
15 -14 -37 -1 -69 -20 -70 -43 -1 -12 2 -15 10 -8 14 12 49 8 53 -6 2 -6 -1
-14 -6 -18 -6 -3 -11 -1 -11 4 0 6 -4 11 -10 11 -5 0 -10 -11 -10 -23 0 -13
-9 -32 -20 -42 -12 -11 -20 -31 -20 -49 0 -44 -37 -61 -77 -35 -48 32 -56 26
-48 -36 3 -30 3 -55 -2 -56 -64 -8 -94 -7 -126 2 -29 10 -42 10 -60 0 -12 -6
-36 -11 -54 -9 -26 2 -32 7 -35 30 -3 15 0 29 6 31 7 3 6 12 -3 30 -13 24 -12
40 4 80 6 14 2 17 -19 17 -25 0 -26 3 -26 50 l0 50 -37 0 c-48 0 -57 -7 -76
-50 l-15 -35 -1 32 c-1 17 3 34 8 37 5 4 4 16 -2 30 -7 13 -16 22 -21 19 -5
-4 -6 1 -3 11 4 10 7 24 7 32 0 9 4 13 9 10 10 -6 31 37 31 64 0 11 5 17 13
15 6 -3 17 6 23 19 9 20 9 23 -2 19 -8 -3 -14 0 -14 6 0 6 6 11 14 11 18 0 27
25 15 37 -6 6 -4 14 6 23 8 7 15 21 15 31 0 21 16 26 23 7 2 -7 8 -10 12 -5 5
4 0 14 -11 21 -19 14 -14 31 9 31 7 0 16 20 21 45 5 25 13 47 16 50 6 4 23 46
25 60 2 21 40 98 47 94 4 -3 8 2 8 10 0 9 5 16 11 16 6 0 8 8 4 19 -3 10 4 43
16 72 38 95 80 231 86 278 5 42 4 44 -9 26 -16 -21 -41 -85 -83 -205 -14 -41
-59 -140 -99 -220 -40 -80 -104 -215 -141 -300 -101 -230 -123 -280 -149 -330
-67 -131 -151 -290 -173 -327 -24 -43 -43 -55 -43 -28 0 8 4 15 9 15 5 0 12
18 16 40 4 22 10 42 15 45 4 3 6 23 3 46 -5 33 -2 43 15 54 13 10 20 26 20 47
0 18 5 46 11 61 6 16 11 41 11 57 0 16 5 32 10 35 6 3 10 15 10 26 0 11 7 19
16 19 9 0 14 6 11 13 -2 6 3 17 12 24 19 14 23 113 5 113 -6 0 -11 11 -11 24
0 39 -24 96 -40 96 -10 0 -13 -6 -9 -17 4 -10 4 -14 0 -10 -4 4 -13 -5 -20
-20 -12 -28 -12 -28 -12 12 0 51 16 115 28 115 14 0 12 19 -3 35 -19 18 -35
-37 -82 -270 -20 -99 -39 -183 -41 -186 -2 -3 -15 -62 -29 -130 -33 -159 -145
-721 -145 -726 0 -2 377 -2 838 0 840 4 920 7 1031 42 41 13 82 16 176 13 143
-4 165 6 112 46 -18 14 -54 30 -81 36 -26 6 -64 17 -83 25 -20 8 -52 15 -72
15 -68 0 -112 13 -141 40 -44 41 -39 57 18 66 26 3 52 11 59 16 13 11 203 -50
261 -83 40 -23 43 -23 36 -4 -4 9 20 1 68 -22 85 -43 177 -125 185 -165 7 -34
19 -36 26 -6 8 30 -5 80 -38 151 -18 38 -32 93 -41 160 -17 133 -41 216 -104
362 -84 195 -136 454 -119 586 23 173 14 226 -79 499 -46 135 -63 172 -92 202
-60 62 -402 203 -760 313 -14 4 -23 5 -20 3z m760 -322 c0 -8 -4 -18 -10 -21
-5 -3 -10 -14 -10 -23 0 -13 5 -12 20 8 l20 25 0 -29 c0 -16 -6 -37 -14 -45
-19 -21 -33 -77 -17 -67 20 13 12 -56 -13 -110 -13 -28 -31 -54 -40 -57 -10
-4 -14 -12 -10 -18 4 -8 3 -9 -4 -5 -7 4 -10 18 -6 34 15 60 -8 8 -66 -153
-34 -93 -64 -172 -67 -175 -13 -12 8 64 51 185 26 72 67 198 91 280 24 83 47
158 50 168 9 21 25 23 25 3z m61 -256 c-1 -54 -7 -70 -58 -155 -33 -55 -89
-129 -135 -177 -64 -67 -73 -74 -50 -38 17 25 44 58 61 74 35 34 41 52 11 36
-14 -7 -20 -7 -20 0 0 5 6 10 13 10 6 0 24 19 38 43 45 73 129 244 129 263 0
9 3 14 6 11 4 -3 6 -34 5 -67z m70 -170 c11 0 22 -7 26 -16 9 -24 -37 -156
-64 -182 -13 -13 -21 -27 -18 -32 6 -10 -55 -60 -73 -60 -6 0 -15 -7 -20 -16
-6 -11 -16 -14 -31 -9 -12 3 -19 11 -16 16 9 14 -3 11 -30 -7 -18 -12 -29 -13
-38 -6 -9 8 -24 2 -56 -19 -72 -50 -59 -24 30 60 88 83 126 133 199 264 l44
78 14 -36 c9 -23 21 -35 33 -35z m23 -308 c-4 -15 -13 -39 -21 -54 -10 -20
-10 -28 -2 -28 18 0 3 -142 -16 -153 -8 -4 -22 -20 -30 -35 -8 -15 -46 -60
-84 -101 -38 -40 -81 -96 -96 -125 -50 -96 -76 -114 -56 -40 5 22 13 65 16 97
6 49 5 57 -9 57 -9 0 -19 7 -22 15 -4 8 -10 12 -16 9 -5 -3 -7 -13 -4 -21 4
-8 1 -11 -5 -8 -6 4 -17 -1 -24 -11 -12 -16 -14 -17 -15 -3 0 9 10 28 21 43
12 15 19 29 16 32 -6 6 -67 -66 -67 -79 0 -11 -52 -67 -62 -67 -15 0 -8 33 13
66 26 43 154 144 181 144 11 0 34 15 52 33 17 19 47 43 66 55 70 42 150 141
150 185 0 16 4 26 10 22 6 -3 7 -18 4 -33z m-80 -576 c79 -35 196 -127 196
-154 0 -8 9 -26 19 -40 35 -50 111 -202 101 -202 -6 0 -13 6 -16 14 -13 35
-190 156 -228 156 -6 0 -44 20 -85 45 -41 24 -103 54 -138 66 -53 17 -63 24
-63 43 0 31 30 55 92 77 66 23 58 23 122 -5z"/>
</g>
</svg>
